<?xml version="1.0" encoding="UTF-8"?>
<svg width="213px" height="33px" viewBox="0 0 213 33" version="1.1" xmlns="http://www.w3.org/2000/svg" xmlns:xlink="http://www.w3.org/1999/xlink">
    <!-- Generator: Sketch 44.1 (41455) - http://www.bohemiancoding.com/sketch -->
    <title>Contacts App</title>
    <desc>Created with Sketch.</desc>
    <defs></defs>
    <g id="Quotes" stroke="none" stroke-width="1" fill="none" fill-rule="evenodd">
        <g id="01-Quote-Example" transform="translate(-130.000000, -746.000000)" fill="#000000">
            <path d="M142.359375,746.001953 C135.662109,746.001953 130.916016,751.416016 130.916016,759.466797 C130.916016,767.710938 135.486328,772.509766 142.324219,772.509766 C145.417969,772.509766 147.210938,771.419922 148.986328,770.171875 C149.285156,769.978516 149.53125,769.873047 149.724609,769.873047 C150.234375,769.873047 150.480469,770.523438 150.603516,772 L151.429688,772 C151.324219,770.171875 151.289062,767.710938 151.289062,763.351562 L150.462891,763.351562 C150.09375,766.269531 149.847656,767.640625 148.792969,769.046875 C147.439453,770.998047 144.802734,771.789062 142.640625,771.789062 C138,771.789062 134.501953,767.359375 134.501953,759.326172 C134.501953,751.521484 137.595703,746.652344 142.289062,746.652344 C144.767578,746.652344 147.140625,747.513672 148.652344,749.464844 C149.671875,750.765625 149.953125,751.732422 150.462891,754.791016 L151.289062,754.791016 C151.289062,750.607422 151.324219,748.269531 151.429688,746.511719 L150.603516,746.511719 C150.480469,747.988281 150.181641,748.65625 149.689453,748.65625 C149.478516,748.65625 149.25,748.550781 148.986328,748.339844 C147.404297,747.126953 145.523438,746.001953 142.359375,746.001953 Z M163.628906,752.962891 C168.199219,752.962891 171.802734,755.828125 171.802734,762.753906 C171.802734,769.662109 168.199219,772.509766 163.628906,772.509766 C159.058594,772.509766 155.455078,769.662109 155.455078,762.753906 C155.455078,755.828125 159.058594,752.962891 163.628906,752.962891 Z M163.628906,753.683594 C160.904297,753.683594 158.953125,756.302734 158.953125,762.753906 C158.953125,769.1875 160.904297,771.789062 163.628906,771.789062 C166.371094,771.789062 168.304688,769.1875 168.304688,762.753906 C168.304688,756.302734 166.371094,753.683594 163.628906,753.683594 Z M186.638672,752.962891 C184.177734,752.962891 181.769531,754.070312 180.503906,757.304688 L180.503906,753.068359 C179.466797,753.419922 178.166016,753.560547 176.759766,753.560547 C176.039062,753.560547 175.283203,753.525391 174.527344,753.455078 L174.527344,754.210938 C176.619141,754.210938 177.269531,755.230469 177.269531,757.392578 L177.269531,768.660156 C177.269531,770.664062 176.513672,771.244141 174.527344,771.244141 L174.527344,772 C175.353516,771.964844 177.269531,771.859375 178.851562,771.859375 C180.433594,771.859375 182.138672,771.964844 182.894531,772 L182.894531,771.244141 C181.154297,771.244141 180.503906,770.664062 180.503906,768.660156 L180.503906,760.662109 C180.503906,756.988281 182.525391,754.105469 185.548828,754.105469 C188.150391,754.105469 188.466797,756.021484 188.466797,758.253906 L188.466797,768.660156 C188.466797,770.664062 187.816406,771.244141 186.09375,771.244141 L186.09375,772 C186.849609,771.964844 188.537109,771.859375 190.119141,771.859375 C191.701172,771.859375 193.617188,771.964844 194.443359,772 L194.443359,771.244141 C192.457031,771.244141 191.701172,770.664062 191.701172,768.660156 L191.701172,759.044922 C191.701172,756.583984 191.349609,755.300781 190.453125,754.316406 C189.626953,753.455078 188.466797,752.962891 186.638672,752.962891 Z M201.826172,753.490234 L201.826172,747.478516 C200.929688,747.8125 199.769531,747.953125 198.591797,747.988281 L198.591797,753.490234 L195.128906,753.490234 L195.128906,754.210938 L198.591797,754.210938 L198.591797,766.269531 C198.591797,768.835938 198.943359,770.242188 199.998047,771.314453 C200.789062,772.105469 201.755859,772.509766 203.408203,772.509766 C206.326172,772.509766 207.591797,770.347656 208.083984,767.535156 L207.380859,767.359375 C206.625,770.171875 205.570312,771.208984 204.128906,771.208984 C202.6875,771.208984 201.826172,770.417969 201.826172,768.150391 L201.826172,754.210938 L207.152344,754.210938 L207.152344,753.490234 L201.826172,753.490234 Z M216.697266,752.962891 C218.71875,752.962891 220.230469,753.490234 221.056641,754.316406 C222.199219,755.476562 222.498047,756.8125 222.498047,759.361328 L222.498047,769.363281 C222.498047,770.523438 222.779297,771.068359 223.605469,771.068359 C224.255859,771.068359 224.730469,770.734375 225.222656,770.3125 L225.626953,770.927734 C224.625,771.683594 223.869141,772.246094 222.339844,772.246094 C219.826172,772.246094 219.246094,770.734375 219.246094,769.046875 C217.699219,771.595703 215.431641,772.246094 213.708984,772.246094 C211.300781,772.246094 209.138672,771.033203 209.138672,768.220703 C209.138672,765.373047 211.335938,764.107422 214.939453,762.595703 C217.347656,761.59375 219.246094,760.978516 219.246094,759.537109 L219.246094,757.304688 C219.246094,754.28125 217.769531,753.683594 215.90625,753.683594 C214.675781,753.683594 213.164062,753.929688 212.337891,754.966797 C213.234375,755.195312 214.025391,755.986328 214.025391,757.164062 C214.025391,758.394531 213.199219,759.115234 211.916016,759.115234 C210.685547,759.115234 209.964844,758.183594 209.964844,756.882812 C209.964844,755.828125 210.650391,755.001953 211.652344,754.316406 C212.671875,753.648438 214.394531,752.962891 216.697266,752.962891 Z M219.246094,768.080078 L219.246094,761.013672 C218.859375,761.59375 218.068359,761.962891 215.800781,763.070312 C214.21875,763.826172 212.302734,764.863281 212.302734,767.640625 C212.302734,769.802734 213.533203,770.804688 215.185547,770.804688 C216.626953,770.804688 218.033203,770.048828 219.246094,768.080078 Z M235.699219,752.962891 C230.777344,752.962891 227.314453,757.058594 227.314453,762.964844 C227.314453,768.90625 230.8125,772.509766 235.277344,772.509766 C239.126953,772.509766 241.183594,769.837891 241.904297,767.5 L241.21875,767.253906 C239.953125,769.978516 237.861328,770.962891 235.998047,770.962891 C233.220703,770.962891 230.8125,768.800781 230.8125,762.419922 C230.8125,755.617188 233.589844,753.595703 235.962891,753.595703 C237.333984,753.595703 238.722656,754.246094 239.197266,755.107422 C238.371094,755.335938 237.685547,756.021484 237.685547,757.09375 C237.685547,758.253906 238.582031,758.904297 239.671875,758.904297 C240.744141,758.904297 241.570312,758.183594 241.570312,756.882812 C241.570312,755.792969 240.955078,754.826172 239.882812,754.105469 C238.722656,753.349609 237.210938,752.962891 235.699219,752.962891 Z M249.990234,753.490234 L249.990234,747.478516 C249.09375,747.8125 247.933594,747.953125 246.755859,747.988281 L246.755859,753.490234 L243.292969,753.490234 L243.292969,754.210938 L246.755859,754.210938 L246.755859,766.269531 C246.755859,768.835938 247.107422,770.242188 248.162109,771.314453 C248.953125,772.105469 249.919922,772.509766 251.572266,772.509766 C254.490234,772.509766 255.755859,770.347656 256.248047,767.535156 L255.544922,767.359375 C254.789062,770.171875 253.734375,771.208984 252.292969,771.208984 C250.851562,771.208984 249.990234,770.417969 249.990234,768.150391 L249.990234,754.210938 L255.316406,754.210938 L255.316406,753.490234 L249.990234,753.490234 Z M263.349609,752.962891 C260.501953,752.962891 258.023438,754.404297 258.023438,757.603516 C258.023438,760.591797 260.361328,761.998047 262.980469,763.650391 C265.335938,765.126953 267.058594,766.269531 267.058594,768.361328 C267.058594,770.927734 265.300781,771.789062 263.859375,771.789062 C260.255859,771.789062 259.324219,769.082031 258.849609,765.056641 L258.023438,765.056641 C258.023438,768.695312 257.988281,770.699219 257.882812,772.246094 L258.708984,772.246094 C258.849609,771.349609 259.130859,770.892578 259.447266,770.892578 C259.552734,770.892578 259.675781,770.927734 259.78125,771.033203 C260.255859,771.419922 260.748047,771.753906 261.257812,772 C262.119141,772.351562 263.068359,772.509766 264.105469,772.509766 C267.375,772.509766 270.257812,770.769531 270.257812,767.464844 C270.257812,764.511719 268.060547,762.929688 265.335938,761.171875 C262.875,759.572266 260.712891,758.570312 260.712891,756.408203 C260.712891,754.615234 261.978516,753.648438 263.666016,753.648438 C266.917969,753.648438 268.130859,756.443359 268.570312,759.115234 L269.396484,759.115234 C269.396484,756.021484 269.431641,754.316406 269.537109,752.998047 L268.710938,752.998047 C268.587891,754.070312 268.324219,754.580078 267.902344,754.580078 C267.726562,754.580078 267.515625,754.474609 267.269531,754.28125 C266.619141,753.753906 265.248047,752.962891 263.349609,752.962891 Z M291.316406,746.335938 L300.087891,768.976562 C300.808594,770.804688 301.828125,771.244141 302.583984,771.279297 L302.583984,772 C301.599609,771.929688 300.087891,771.894531 298.716797,771.894531 C296.853516,771.894531 295.130859,771.929688 294.111328,772 L294.111328,771.279297 C295.851562,771.208984 296.660156,770.945312 296.660156,769.943359 C296.660156,769.521484 296.519531,768.976562 296.238281,768.255859 L294.023438,762.349609 L285.339844,762.349609 L283.863281,766.164062 C283.371094,767.412109 283.142578,768.378906 283.142578,769.117188 C283.142578,770.681641 284.214844,771.226562 286.271484,771.279297 L286.271484,772 C284.900391,771.929688 283.388672,771.894531 282.123047,771.894531 C280.910156,771.894531 280.154297,771.929688 279.433594,772 L279.433594,771.279297 C280.365234,771.068359 281.4375,770.3125 282.263672,768.150391 L290.736328,746.335938 L291.316406,746.335938 Z M293.759766,761.628906 L289.734375,750.888672 L285.603516,761.628906 L293.759766,761.628906 Z M314.888672,752.962891 C318.667969,752.962891 321.585938,756.091797 321.585938,761.892578 C321.585938,767.095703 319.195312,772.509766 313.341797,772.509766 C311.460938,772.509766 309.931641,771.683594 309.123047,770.558594 L309.123047,775.164062 C309.123047,777.220703 310.423828,777.765625 312.585938,777.765625 L312.585938,778.521484 C311.53125,778.486328 309.492188,778.363281 307.400391,778.363281 C305.888672,778.363281 304.271484,778.486328 303.515625,778.521484 L303.515625,777.765625 C305.238281,777.765625 305.888672,777.255859 305.888672,775.533203 L305.888672,757.392578 C305.888672,755.230469 305.238281,754.210938 303.146484,754.210938 L303.146484,753.455078 C303.902344,753.525391 304.658203,753.560547 305.378906,753.560547 C306.785156,753.560547 308.085938,753.419922 309.123047,753.068359 L309.123047,756.865234 C310.212891,754.369141 312.339844,752.962891 314.888672,752.962891 Z M312.9375,771.683594 C316.927734,771.683594 318.087891,767.5 318.087891,762.384766 C318.087891,756.671875 316.646484,754.035156 313.904297,754.035156 C311.8125,754.035156 309.896484,755.546875 309.123047,758.587891 L309.123047,769.363281 C309.791016,770.699219 311.039062,771.683594 312.9375,771.683594 Z M335.806641,752.962891 C339.585938,752.962891 342.503906,756.091797 342.503906,761.892578 C342.503906,767.095703 340.113281,772.509766 334.259766,772.509766 C332.378906,772.509766 330.849609,771.683594 330.041016,770.558594 L330.041016,775.164062 C330.041016,777.220703 331.341797,777.765625 333.503906,777.765625 L333.503906,778.521484 C332.449219,778.486328 330.410156,778.363281 328.318359,778.363281 C326.806641,778.363281 325.189453,778.486328 324.433594,778.521484 L324.433594,777.765625 C326.15625,777.765625 326.806641,777.255859 326.806641,775.533203 L326.806641,757.392578 C326.806641,755.230469 326.15625,754.210938 324.064453,754.210938 L324.064453,753.455078 C324.820312,753.525391 325.576172,753.560547 326.296875,753.560547 C327.703125,753.560547 329.003906,753.419922 330.041016,753.068359 L330.041016,756.865234 C331.130859,754.369141 333.257812,752.962891 335.806641,752.962891 Z M333.855469,771.683594 C337.845703,771.683594 339.005859,767.5 339.005859,762.384766 C339.005859,756.671875 337.564453,754.035156 334.822266,754.035156 C332.730469,754.035156 330.814453,755.546875 330.041016,758.587891 L330.041016,769.363281 C330.708984,770.699219 331.957031,771.683594 333.855469,771.683594 Z" id="Contacts-App"></path>
        </g>
    </g>
</svg>